<svg display="none" xmlns="http://www.w3.org/2000/svg">
  <symbol
    fill="#000000"
    width="35px"
    height="35px"
    viewBox="-25.6 -25.6 307.20 307.20"
    id="instagram"
    stroke="#000000"
    stroke-width="0"
  >
    <g id="SVGRepo_bgCarrier" stroke-width="0">

<rect x="-25.6" y="-25.6" width="307.20" height="307.20" rx="153.6" fill="#D3D3D3" strokewidth="0"/>

</g>

<g id="SVGRepo_iconCarrier"> <path d="M128,84a44,44,0,1,0,44,44A44.04978,44.04978,0,0,0,128,84Zm0,80a36,36,0,1,1,36-36A36.04061,36.04061,0,0,1,128,164ZM172,32H84A52.059,52.059,0,0,0,32,84v88a52.059,52.059,0,0,0,52,52h88a52.059,52.059,0,0,0,52-52V84A52.059,52.059,0,0,0,172,32Zm44,140a44.04978,44.04978,0,0,1-44,44H84a44.04978,44.04978,0,0,1-44-44V84A44.04978,44.04978,0,0,1,84,40h88a44.04978,44.04978,0,0,1,44,44ZM188,76a8,8,0,1,1-8-8A8.00917,8.00917,0,0,1,188,76Z"/> </g>
  </symbol>
  <symbol
    fill="#000000"
    width="35px"
    height="35px"
    viewBox="-25.6 -25.6 307.20 307.20"
    id="linkedin"
    stroke="#000000"
    stroke-width="0"
  >
    <g id="SVGRepo_bgCarrier" stroke-width="0">
      <rect
        x="-25.6"
        y="-25.6"
        width="307.20"
        height="307.20"
        rx="153.6"
        fill="#D3D3D3"
        strokewidth="0"
      />
    </g>

    <g id="SVGRepo_iconCarrier">
      <path
        d="M96,80a8,8,0,1,1-8-8A7.99993,7.99993,0,0,1,96,80Zm-8,28.001a4,4,0,0,0-4,4v64a4,4,0,1,0,8,0v-64A4,4,0,0,0,88,108.001Zm60,0a31.92463,31.92463,0,0,0-24,10.86767V112.001a4,4,0,0,0-8,0v64a4,4,0,1,0,8,0v-36a24,24,0,0,1,48,0v36a4,4,0,1,0,8,0v-36A32.03619,32.03619,0,0,0,148,108.001ZM224,44V212a12.01375,12.01375,0,0,1-12,12H44a12.01375,12.01375,0,0,1-12-12V44A12.01359,12.01359,0,0,1,44,32H212A12.01359,12.01359,0,0,1,224,44Zm-8,0a4.00458,4.00458,0,0,0-4-4H44a4.00458,4.00458,0,0,0-4,4V212a4.00458,4.00458,0,0,0,4,4H212a4.00458,4.00458,0,0,0,4-4Z"
      />
    </g>
  </symbol>
  <symbol
    fill="#000000" width="35px" height="35px" viewBox="-25.6 -25.6 307.20 307.20" id="telegram" stroke="#000000" stroke-width="0"
  >
    <g id="SVGRepo_bgCarrier" stroke-width="0">

<rect x="-25.6" y="-25.6" width="307.20" height="307.20" rx="153.6" fill="#D3D3D3" strokewidth="0"/>

</g>

<g id="SVGRepo_iconCarrier"> <path d="M228.646,34.7676a11.96514,11.96514,0,0,0-12.21778-2.0752L31.87109,105.19729a11.99915,11.99915,0,0,0,2.03467,22.93457L84,138.15139v61.833a11.8137,11.8137,0,0,0,7.40771,11.08593,12.17148,12.17148,0,0,0,4.66846.94434,11.83219,11.83219,0,0,0,8.40918-3.5459l28.59619-28.59619L175.2749,217.003a11.89844,11.89844,0,0,0,7.88819,3.00195,12.112,12.112,0,0,0,3.72265-.59082,11.89762,11.89762,0,0,0,8.01319-8.73925L232.5127,46.542A11.97177,11.97177,0,0,0,228.646,34.7676ZM32.2749,116.71877a3.86572,3.86572,0,0,1,2.522-4.07617L203.97217,46.18044,87.07227,130.60769,35.47461,120.28811A3.86618,3.86618,0,0,1,32.2749,116.71877Zm66.55322,86.09375A3.99976,3.99976,0,0,1,92,199.9844V143.72048l35.064,30.85669ZM224.71484,44.7549,187.10107,208.88772a4.0003,4.0003,0,0,1-6.5415,2.10937l-86.1543-75.8164,129.66309-93.645A3.80732,3.80732,0,0,1,224.71484,44.7549Z"/> </g>

  </symbol>
  <symbol id="search" viewBox="0 0 16 16" fill="none" width="16">
    <path
      d="M14.6667 14.6667L10.5802 10.5802M10.5802 10.5802C11.5604 9.59995 12.1667 8.24578 12.1667 6.75001C12.1667 3.75847 9.74154 1.33334 6.74999 1.33334C3.75845 1.33334 1.33333 3.75847 1.33333 6.75001C1.33333 9.74155 3.75845 12.1667 6.74999 12.1667C8.24577 12.1667 9.59993 11.5604 10.5802 10.5802Z"
      stroke="#333333"
      stroke-width="1.8"
      stroke-linecap="round"
      stroke-linejoin="round"
    />
  </symbol>
  <symbol id="star" width="30" height="28" viewBox="0 0 30 28" fill="none">
    <path
      d="M15 0L18.3677 10.3647H29.2658L20.4491 16.7705L23.8168 27.1353L15 20.7295L6.18322 27.1353L9.55093 16.7705L0.734152 10.3647H11.6323L15 0Z"
      fill="white"
    />
  </symbol>
</svg>